<svg id="bold" enable-background="new 0 0 24 24" height="512" viewBox="0 0 24 24" width="512" xmlns="http://www.w3.org/2000/svg"><path d="m5 17.5h-.5v1h.5c.28 0 .5-.22.5-.5s-.22-.5-.5-.5z"/><path d="m10.25 17.5h-.75v3h.75c.14 0 .25-.11.25-.25v-2.5c0-.14-.11-.25-.25-.25z"/><path d="m17.25 15.5c-4.82 0-8.75-3.93-8.75-8.75 0-2.71 1.24-5.14 3.19-6.75h-8.94c-1.52 0-2.75 1.23-2.75 2.75v18.5c0 1.52 1.23 2.75 2.75 2.75h14.5c1.52 0 2.75-1.23 2.75-2.75v-6.19c-.86.28-1.79.44-2.75.44zm-12.25 4.5h-.5v1.25c0 .41-.34.75-.75.75s-.75-.34-.75-.75v-4.5c0-.41.34-.75.75-.75h1.25c1.1 0 2 .9 2 2s-.9 2-2 2zm7 .25c0 .96-.79 1.75-1.75 1.75h-1.5c-.41 0-.75-.34-.75-.75v-4.5c0-.41.34-.75.75-.75h1.5c.96 0 1.75.79 1.75 1.75zm4.25-1.75c.414 0 .75.336.75.75s-.336.75-.75.75h-1.75v1.25c0 .414-.336.75-.75.75s-.75-.336-.75-.75v-3.5c0-.965.785-1.75 1.75-1.75h1.5c.414 0 .75.336.75.75s-.336.75-.75.75h-1.5c-.138 0-.25.112-.25.25v.75z"/><path d="m17.25 0c-3.722 0-6.75 3.028-6.75 6.75s3.028 6.75 6.75 6.75 6.75-3.028 6.75-6.75-3.028-6.75-6.75-6.75zm2.75 7.75h-1.75v1.75c0 .552-.448 1-1 1s-1-.448-1-1v-1.75h-1.75c-.552 0-1-.448-1-1s.448-1 1-1h1.75v-1.75c0-.552.448-1 1-1s1 .448 1 1v1.75h1.75c.552 0 1 .448 1 1s-.448 1-1 1z"/></svg>